<?xml version="1.0" encoding="UTF-8"?>
<svg version="1.1" xmlns="http://www.w3.org/2000/svg" width="512" height="512">
<path d="M0 0 C0.9355925 -0.00974854 1.871185 -0.01949707 2.83512878 -0.02954102 C23.24416486 -0.1984297 42.96079539 -0.03089418 63.0078125 4.23828125 C63.93158691 4.42551758 64.85536133 4.61275391 65.80712891 4.80566406 C101.4803425 12.13655694 136.04867954 27.05718327 165.0078125 49.23828125 C165.5857959 49.67495117 166.1637793 50.11162109 166.75927734 50.56152344 C175.26586251 57.002323 183.31244993 63.84319145 191.0078125 71.23828125 C191.60239258 71.80562988 192.19697266 72.37297852 192.80957031 72.95751953 C201.15799553 80.96365501 208.80764092 89.18319073 215.69726562 98.47900391 C217.02578341 100.26240538 218.38141287 102.02237641 219.7421875 103.78125 C227.10148221 113.40694237 233.21551204 123.60687263 239.0078125 134.23828125 C239.3697168 134.89876465 239.73162109 135.55924805 240.10449219 136.23974609 C257.60985188 168.57859478 268.92626162 206.31643928 269.24609375 243.23046875 C269.25584229 244.16606125 269.26559082 245.10165375 269.27563477 246.06559753 C269.44452345 266.47463361 269.27698793 286.19126414 265.0078125 306.23828125 C264.82057617 307.16205566 264.63333984 308.08583008 264.44042969 309.03759766 C257.10953681 344.71081125 242.18891048 379.27914829 220.0078125 408.23828125 C219.57114258 408.81626465 219.13447266 409.39424805 218.68457031 409.98974609 C212.24377075 418.49633126 205.4029023 426.54291868 198.0078125 434.23828125 C197.44046387 434.83286133 196.87311523 435.42744141 196.28857422 436.04003906 C188.28243874 444.38846428 180.06290302 452.03810967 170.76708984 458.92773438 C168.98368837 460.25625216 167.22371734 461.61188162 165.46484375 462.97265625 C155.83915138 470.33195096 145.63922112 476.44598079 135.0078125 482.23828125 C134.3473291 482.60018555 133.6868457 482.96208984 133.00634766 483.33496094 C100.66749897 500.84032063 62.92965447 512.15673037 26.015625 512.4765625 C25.0800325 512.48631104 24.14444 512.49605957 23.18049622 512.50610352 C2.77146014 512.6749922 -16.94517039 512.50745668 -36.9921875 508.23828125 C-37.91596191 508.05104492 -38.83973633 507.86380859 -39.79150391 507.67089844 C-75.4647175 500.34000556 -110.03305454 485.41937923 -138.9921875 463.23828125 C-139.5701709 462.80161133 -140.1481543 462.36494141 -140.74365234 461.91503906 C-149.25023751 455.4742395 -157.29682493 448.63337105 -164.9921875 441.23828125 C-165.58676758 440.67093262 -166.18134766 440.10358398 -166.79394531 439.51904297 C-175.14237053 431.51290749 -182.79201592 423.29337177 -189.68164062 413.99755859 C-191.01015841 412.21415712 -192.36578787 410.45418609 -193.7265625 408.6953125 C-201.08585721 399.06962013 -207.19988704 388.86968987 -212.9921875 378.23828125 C-213.3540918 377.57779785 -213.71599609 376.91731445 -214.08886719 376.23681641 C-231.59422688 343.89796772 -242.91063662 306.16012322 -243.23046875 269.24609375 C-243.24021729 268.31050125 -243.24996582 267.37490875 -243.26000977 266.41096497 C-243.42889845 246.00192889 -243.26136293 226.28529836 -238.9921875 206.23828125 C-238.80495117 205.31450684 -238.61771484 204.39073242 -238.42480469 203.43896484 C-231.09391181 167.76575125 -216.17328548 133.19741421 -193.9921875 104.23828125 C-193.55551758 103.66029785 -193.11884766 103.08231445 -192.66894531 102.48681641 C-186.22814575 93.98023124 -179.3872773 85.93364382 -171.9921875 78.23828125 C-171.42483887 77.64370117 -170.85749023 77.04912109 -170.27294922 76.43652344 C-162.26681374 68.08809822 -154.04727802 60.43845283 -144.75146484 53.54882812 C-142.96806337 52.22031034 -141.20809234 50.86468088 -139.44921875 49.50390625 C-129.82352638 42.14461154 -119.62359612 36.03058171 -108.9921875 30.23828125 C-108.3317041 29.87637695 -107.6712207 29.51447266 -106.99072266 29.14160156 C-74.65187397 11.63624187 -36.91402947 0.31983213 0 0 Z " fill="#000000" transform="translate(242.9921875,-0.23828125)"/>
<path d="M0 0 C3.84874261 1.56800625 6.1211287 4.05332188 9 7 C9.76777545 7.76777545 10.5355509 8.5355509 11.32659227 9.32659227 C84.30846667 82.30846667 157.29034108 155.29034108 275 273 C273.38223883 276.42482707 271.57656756 278.65690522 268.8671875 281.328125 C268.06152344 282.12734375 267.25585938 282.9265625 266.42578125 283.75 C265.58402344 284.575 264.74226563 285.4 263.875 286.25 C263.02550781 287.09046875 262.17601562 287.9309375 261.30078125 288.796875 C259.20495077 290.86915683 257.10459287 292.93662393 255 295 C251.99785879 293.65227686 249.90811622 292.15732281 247.58736038 289.83345604 C246.92800122 289.17807897 246.26864205 288.5227019 245.5893023 287.84746492 C244.87334634 287.12568327 244.15739037 286.40390162 243.41973877 285.6602478 C242.26917578 284.51224809 242.26917578 284.51224809 241.0953691 283.34105647 C238.51875968 280.76774904 235.94937736 278.18734395 233.37988281 275.60693359 C231.5373812 273.76386802 229.69443944 271.92124237 227.85108948 270.07902527 C223.87926316 266.10824781 219.91111606 262.13382397 215.9454422 258.15690231 C210.21173538 252.40694363 204.47251599 246.66251341 198.73193476 240.91941889 C189.41844748 231.60155402 180.10943559 222.27923127 170.80322266 212.95410156 C161.7629225 203.89544428 152.72052482 194.83888927 143.67529297 185.78515625 C143.11777569 185.22711352 142.56025841 184.6690708 141.98584667 184.09411769 C139.1889423 181.29460325 136.39199658 178.49513011 133.59503031 175.69567752 C110.39027322 152.47018592 87.19277325 129.23745866 64 106 C61.21309956 107.34481542 59.15857357 108.5945303 56.97558594 110.79736328 C56.41530701 111.35779327 55.85502808 111.91822327 55.277771 112.49563599 C54.68595032 113.09777924 54.09412964 113.69992249 53.484375 114.3203125 C52.86854553 114.93897186 52.25271606 115.55763123 51.6182251 116.19503784 C49.65739664 118.16703814 47.70364699 120.14588737 45.75 122.125 C44.41973201 123.46530164 43.089008 124.80515083 41.7578125 126.14453125 C38.4998985 129.42446589 35.24831467 132.71055942 32 136 C33.81713909 139.99062144 36.42480719 142.40939163 39.6875 145.25 C43.92836675 149.02659813 47.77359416 152.87864872 51.42578125 157.23828125 C53.50514319 159.56530913 55.84341809 161.46066486 58.25 163.4375 C60.84697975 165.75623192 63.00106384 168.4119681 65.25 171.0625 C66.90380025 172.89349314 68.59609722 174.43607986 70.5 176 C73.8169684 178.72465261 76.47848806 181.79607522 79.25 185.0625 C81.39846777 187.44116075 83.76519181 189.39729216 86.23828125 191.42578125 C88.87066798 193.77800265 91.07861635 196.45073625 93.32421875 199.16796875 C95.0655846 201.07169971 96.8941714 202.51812062 99 204 C98.46597521 207.89321298 96.85644239 209.30420658 93.875 211.75 C90.0187536 215.03426727 86.67096446 218.46613674 83.41015625 222.3359375 C82 224 82 224 80 226 C77.37820341 225.79750352 76.24630116 225.24043685 74.359375 223.3984375 C73.82828125 222.73070312 73.2971875 222.06296875 72.75 221.375 C70.31264635 218.44704411 67.85014795 215.89348039 64.9375 213.4375 C61.77740346 210.76263901 59.18422688 207.9416675 56.5625 204.75 C54.83373364 202.81378167 52.97866277 201.17886538 51 199.5 C47.82044025 196.80219172 45.20283787 193.96432437 42.5625 190.75 C40.83373364 188.81378167 38.97866277 187.17886538 37 185.5 C33.82044025 182.80219172 31.20283787 179.96432437 28.5625 176.75 C26.83373364 174.81378167 24.97866277 173.17886538 23 171.5 C19.82044025 168.80219172 17.20283787 165.96432437 14.5625 162.75 C12.83373364 160.81378167 10.97866277 159.17886538 9 157.5 C5.82518011 154.80621343 3.20817541 151.97702764 0.578125 148.76171875 C-1.79455141 146.11301315 -4.5093636 143.91390824 -7.265625 141.67578125 C-9.10772647 139.89591293 -9.91937192 138.29707441 -11 136 C-10.35076065 135.35298126 -9.7015213 134.70596252 -9.03260803 134.03933716 C-2.92322651 127.94996865 3.18376434 121.85821497 9.2880621 115.76375008 C12.42664081 112.6303964 15.56614566 109.49798238 18.70776367 106.36767578 C21.73791076 103.34837096 24.76562919 100.32665051 27.7916584 97.30321884 C28.94825107 96.14847799 30.10572546 94.99461959 31.26408195 93.8416481 C32.88272312 92.23023509 34.49823904 90.61575114 36.11303711 89.00048828 C37.03459091 88.08115509 37.95614471 87.1618219 38.90562439 86.21463013 C41.02887614 84.18361389 41.02887614 84.18361389 42 82 C41.18876678 81.6767424 41.18876678 81.6767424 40.36114502 81.34695435 C37.16754879 79.5251144 34.78282336 77.04475553 32.22167969 74.44873047 C31.65538849 73.88273132 31.08909729 73.31673218 30.50564575 72.73358154 C28.63960762 70.8661528 26.78074904 68.99174538 24.921875 67.1171875 C23.62765446 65.81923589 22.33299095 64.52172584 21.03790283 63.22463989 C17.63374354 59.81285164 14.23563366 56.39509948 10.83874512 52.97607422 C7.37008593 49.4869408 3.89574417 46.00347613 0.421875 42.51953125 C-6.39099302 35.68522632 -13.1974842 28.84460797 -20 22 C-18.38223883 18.57517293 -16.57656756 16.34309478 -13.8671875 13.671875 C-12.65869141 12.47304687 -12.65869141 12.47304687 -11.42578125 11.25 C-10.58402344 10.425 -9.74226563 9.6 -8.875 8.75 C-8.02550781 7.90953125 -7.17601563 7.0690625 -6.30078125 6.203125 C-4.20495077 4.13084317 -2.10459287 2.06337607 0 0 Z " fill="#F9F9F9" transform="translate(118,119)"/>
<path d="M0 0 C2.55807937 1.16970705 3.81915183 2.8016615 5.59790039 4.9699707 C8.23370385 8.06630488 10.86365436 10.84915029 13.97290039 13.4699707 C17.11354272 16.1217971 19.6823104 18.92599158 22.28540039 22.0949707 C24.01416676 24.03118903 25.86923763 25.66610533 27.84790039 27.3449707 C31.02746014 30.04277898 33.64506252 32.88064634 36.28540039 36.0949707 C38.01416676 38.03118903 39.86923763 39.66610533 41.84790039 41.3449707 C45.02746014 44.04277898 47.64506252 46.88064634 50.28540039 50.0949707 C52.01416676 52.03118903 53.86923763 53.66610533 55.84790039 55.3449707 C59.02746014 58.04277898 61.64506252 60.88064634 64.28540039 64.0949707 C66.01416676 66.03118903 67.86923763 67.66610533 69.84790039 69.3449707 C73.02176745 72.03794882 75.64102132 74.86137627 78.26196289 78.08325195 C80.67566924 80.76448734 83.4755003 82.94602756 86.30883789 85.16918945 C87.84790039 86.8449707 87.84790039 86.8449707 87.84790039 90.8449707 C85.91174316 93.262146 85.91174316 93.262146 83.16625977 95.98071289 C82.66882767 96.4787291 82.17139557 96.9767453 81.65888977 97.48985291 C80.01244706 99.13350904 78.35229066 100.7625454 76.69165039 102.3918457 C75.54734861 103.52868716 74.40392683 104.66641503 73.26135254 105.80499268 C70.25172397 108.79934862 67.23027706 111.78149918 64.20623779 114.7612915 C61.12255301 117.80405899 58.05016048 120.85818126 54.97680664 123.91137695 C48.94485134 129.90043261 42.9003675 135.87664514 36.84790039 141.8449707 C33.45219424 140.23735992 31.19211034 138.44658308 28.51977539 135.7824707 C27.72055664 134.98583008 26.92133789 134.18918945 26.09790039 133.3684082 C25.27290039 132.53567383 24.44790039 131.70293945 23.59790039 130.8449707 C22.33719727 129.59586914 22.33719727 129.59586914 21.05102539 128.3215332 C20.25696289 127.52489258 19.46290039 126.72825195 18.64477539 125.9074707 C17.91613281 125.17657227 17.18749023 124.44567383 16.43676758 123.69262695 C14.84790039 121.8449707 14.84790039 121.8449707 14.84790039 119.8449707 C18.10424595 116.34763206 21.65010497 113.2008953 25.22290039 110.0324707 C29.17642847 106.46529811 32.72719699 102.81239271 36.14477539 98.73950195 C39.09300471 95.45993493 42.46152571 92.65961979 45.84790039 89.8449707 C44.28069133 85.77972539 41.36256646 83.38288249 38.16040039 80.5949707 C33.91953364 76.81837257 30.07430623 72.96632198 26.42211914 68.60668945 C24.3427572 66.27966157 22.0044823 64.38430584 19.59790039 62.4074707 C17.00092064 60.08873879 14.84683655 57.43300261 12.59790039 54.7824707 C10.94410014 52.95147757 9.25180317 51.40889085 7.34790039 49.8449707 C4.0337537 47.12263593 1.37380326 44.05489203 -1.39428711 40.7902832 C-3.58799659 38.36257804 -6.00809552 36.35195848 -8.53100586 34.27856445 C-11.03581233 32.06347054 -13.02018178 29.41420501 -15.15209961 26.8449707 C-17.09270877 25.08456097 -19.09485966 23.47162555 -21.15209961 21.8449707 C-20.28582142 16.0134596 -15.32835031 12.50886276 -11.33959961 8.5324707 C-10.10886719 7.25919922 -10.10886719 7.25919922 -8.85327148 5.96020508 C-7.66121094 4.76427734 -7.66121094 4.76427734 -6.44506836 3.54418945 C-5.71827881 2.81031006 -4.99148926 2.07643066 -4.24267578 1.3203125 C-2.15209961 -0.1550293 -2.15209961 -0.1550293 0 0 Z " fill="#FAFAFA" transform="translate(316.152099609375,167.155029296875)"/>
</svg>
